<?xml version="1.0" standalone="no"?><!DOCTYPE svg PUBLIC "-//W3C//DTD SVG 1.1//EN" "http://www.w3.org/Graphics/SVG/1.1/DTD/svg11.dtd"><svg t="1588037814768" class="icon" viewBox="0 0 1024 1024" version="1.1" xmlns="http://www.w3.org/2000/svg" p-id="3761" xmlns:xlink="http://www.w3.org/1999/xlink" width="200" height="200"><defs><style type="text/css"></style></defs><path d="M406.101333 597.589333H276.010667a21.333333 21.333333 0 0 0-21.333334 21.333334v129.706666a21.333333 21.333333 0 0 0 21.333334 21.333334h130.090666a21.333333 21.333333 0 0 0 21.333334-21.333334v-129.706666a21.333333 21.333333 0 0 0-21.333334-21.333334z m-21.333333 129.706667H297.344v-87.04h87.424v87.04z" p-id="3762"></path><path d="M1016.832 467.626667L525.952 52.010667a21.418667 21.418667 0 0 0-27.562667 0L7.466667 467.626667a21.418667 21.418667 0 0 0-2.517334 30.08c7.637333 8.96 21.12 10.069333 30.08 2.517333l49.28-41.728v543.402667a21.333333 21.333333 0 0 0 21.333334 21.333333H918.613333a21.333333 21.333333 0 0 0 21.333334-21.333333V458.453333l49.28 41.728a21.376 21.376 0 0 0 27.605333-32.554666zM552.533333 980.522667v-340.309334h173.056v340.309334H552.533333z m344.746667 0h-129.024v-361.642667a21.333333 21.333333 0 0 0-21.333333-21.333333H531.2a21.333333 21.333333 0 0 0-21.333333 21.333333v361.642667H127.018667V422.357333l385.152-326.101333 385.152 326.101333v558.165334z" p-id="3763"></path></svg>